<svg width="170" height="34" viewBox="0 0 170 34" fill="none" xmlns="http://www.w3.org/2000/svg">
<path d="M49.5195 10.0742C50.1576 10.0742 50.7773 10.1836 51.3789 10.4023C51.9987 10.6211 52.5911 10.9401 53.1562 11.3594C53.2474 11.4505 53.3477 11.5417 53.457 11.6328C53.5482 11.5417 53.6484 11.4505 53.7578 11.3594C54.3229 10.9401 54.9062 10.6211 55.5078 10.4023C56.1276 10.1836 56.7474 10.0742 57.3672 10.0742C58.0052 10.0742 58.625 10.1836 59.2266 10.4023C59.8464 10.6211 60.4297 10.9492 60.9766 11.3867C61.5417 11.806 62.0339 12.3711 62.4531 13.082C62.8906 13.793 63.1094 14.6406 63.1094 15.625V25.4961C63 26.5898 62.3984 27.1823 61.3047 27.2734C60.7943 27.2734 60.3477 27.1094 59.9648 26.7812C59.6003 26.4349 59.418 26.0065 59.418 25.4961V15.8438C59.418 15.4062 59.3359 15.0417 59.1719 14.75C59.0078 14.4401 58.8255 14.2031 58.625 14.0391C58.4245 13.8568 58.2148 13.7292 57.9961 13.6562C57.7773 13.5651 57.5586 13.5195 57.3398 13.5195C57.1211 13.5195 56.9023 13.5651 56.6836 13.6562C56.4831 13.7292 56.2826 13.8568 56.082 14.0391C55.8815 14.2031 55.6992 14.4401 55.5352 14.75C55.3711 15.0417 55.2799 15.4062 55.2617 15.8438V25.4961C55.1523 26.5898 54.5508 27.1823 53.457 27.2734C52.9466 27.2734 52.5 27.1094 52.1172 26.7812C51.7526 26.4349 51.5703 26.0065 51.5703 25.4961V15.8438C51.5703 15.4062 51.4883 15.0417 51.3242 14.75C51.1602 14.4401 50.9779 14.2031 50.7773 14.0391C50.5768 13.8568 50.3672 13.7292 50.1484 13.6562C49.9297 13.5651 49.7109 13.5195 49.4922 13.5195C49.2734 13.5195 49.0547 13.5651 48.8359 13.6562C48.6354 13.7292 48.4349 13.8568 48.2344 14.0391C48.0339 14.2031 47.8516 14.4401 47.6875 14.75C47.5234 15.0417 47.4323 15.4062 47.4141 15.8438V25.4961C47.3229 26.5898 46.7305 27.1823 45.6367 27.2734C45.1263 27.2734 44.6797 27.1094 44.2969 26.7812C43.9323 26.4349 43.75 26.0065 43.75 25.4961V15.625C43.7865 14.6406 44.0143 13.793 44.4336 13.082C44.8529 12.3711 45.3451 11.806 45.9102 11.3867C46.4753 10.9492 47.0586 10.6211 47.6602 10.4023C48.2799 10.1836 48.8997 10.0742 49.5195 10.0742ZM81.8398 25.4961V18.9062C81.8398 18.4505 81.6029 18.2135 81.1289 18.1953H71.5586C71.2122 18.2135 70.9115 18.3685 70.6562 18.6602C70.401 18.9336 70.2096 19.2617 70.082 19.6445C69.9727 20.0091 69.918 20.3828 69.918 20.7656C69.918 21.1302 69.9727 21.5039 70.082 21.8867C70.2096 22.2513 70.401 22.5794 70.6562 22.8711C70.9115 23.1445 71.2122 23.2812 71.5586 23.2812H78.5586C79.069 23.2812 79.4974 23.4635 79.8438 23.8281C80.2083 24.1745 80.3906 24.6029 80.3906 25.1133C80.3906 25.6237 80.2083 26.0521 79.8438 26.3984C79.4974 26.763 79.069 26.9453 78.5586 26.9453H71.668C70.3919 26.9271 69.3346 26.5716 68.4961 25.8789C67.6758 25.168 67.0833 24.375 66.7188 23.5C66.3724 22.6068 66.1992 21.6862 66.1992 20.7383C66.1992 19.8268 66.3815 18.9336 66.7461 18.0586C67.1107 17.1654 67.7031 16.3724 68.5234 15.6797C69.3438 14.9688 70.556 14.5859 72.1602 14.5312H83.6445C84.1549 14.5312 84.5924 14.7044 84.957 15.0508C85.3216 15.3789 85.513 15.7982 85.5312 16.3086V25.4961C85.5312 26.0065 85.3398 26.4349 84.957 26.7812C84.5924 27.1094 84.1549 27.2734 83.6445 27.2734C82.5508 27.1823 81.9492 26.5898 81.8398 25.4961ZM94.8555 27.3008C94.2357 27.3008 93.6159 27.1914 92.9961 26.9727C92.3945 26.7539 91.8112 26.4349 91.2461 26.0156C90.681 25.5781 90.1888 25.0039 89.7695 24.293C89.3503 23.582 89.1224 22.7344 89.0859 21.75V15.9258C89.0859 15.4154 89.2682 14.9961 89.6328 14.668C90.0156 14.3216 90.4622 14.1484 90.9727 14.1484C92.0664 14.2396 92.6589 14.832 92.75 15.9258V21.5312C92.7682 21.9688 92.8594 22.3424 93.0234 22.6523C93.1875 22.944 93.3698 23.181 93.5703 23.3633C93.7708 23.5273 93.9714 23.6549 94.1719 23.7461C94.3906 23.819 94.6094 23.8555 94.8281 23.8555C95.0469 23.8555 95.2656 23.819 95.4844 23.7461C95.7031 23.6549 95.9128 23.5273 96.1133 23.3633C96.3138 23.181 96.4961 22.944 96.6602 22.6523C96.8242 22.3424 96.9062 21.9688 96.9062 21.5312V15.9258C96.9062 15.4154 97.0885 14.9961 97.4531 14.668C97.8359 14.3216 98.2826 14.1484 98.793 14.1484C99.8867 14.2396 100.488 14.832 100.598 15.9258V21.5312C100.616 21.9688 100.707 22.3333 100.871 22.625C101.035 22.9349 101.217 23.181 101.418 23.3633C101.618 23.5273 101.819 23.6549 102.02 23.7461C102.238 23.819 102.457 23.8555 102.676 23.8555C102.895 23.8555 103.113 23.819 103.332 23.7461C103.551 23.6549 103.76 23.5273 103.961 23.3633C104.161 23.181 104.344 22.944 104.508 22.6523C104.672 22.3424 104.754 21.9688 104.754 21.5312V15.9258C104.754 15.4154 104.936 14.9961 105.301 14.668C105.684 14.3216 106.13 14.1484 106.641 14.1484C107.734 14.2396 108.336 14.832 108.445 15.9258V21.75C108.445 22.7344 108.227 23.582 107.789 24.293C107.37 25.0039 106.878 25.5781 106.312 26.0156C105.766 26.4349 105.182 26.7539 104.562 26.9727C103.961 27.1914 103.341 27.3008 102.703 27.3008C102.083 27.3008 101.464 27.1914 100.844 26.9727C100.242 26.7539 99.6589 26.4258 99.0938 25.9883C98.9844 25.9154 98.8841 25.8333 98.793 25.7422C98.6836 25.8333 98.5833 25.9154 98.4922 25.9883C97.9271 26.4258 97.3346 26.7539 96.7148 26.9727C96.1133 27.1914 95.4935 27.3008 94.8555 27.3008ZM112.246 25.0586C112.246 24.5482 112.428 24.1198 112.793 23.7734C113.139 23.4089 113.568 23.2266 114.078 23.2266H125.125C125.471 23.2083 125.754 23.1263 125.973 22.9805C126.21 22.8346 126.383 22.6706 126.492 22.4883C126.602 22.306 126.656 22.1146 126.656 21.9141C126.656 21.7135 126.602 21.5221 126.492 21.3398C126.383 21.1576 126.21 20.9935 125.973 20.8477C125.754 20.7018 125.471 20.6198 125.125 20.6016H114.133C113.622 20.6016 113.194 20.4193 112.848 20.0547C112.483 19.7083 112.301 19.2799 112.301 18.7695C112.301 18.2591 112.474 17.8307 112.82 17.4844C113.185 17.1198 113.622 16.9375 114.133 16.9375H124.961C124.979 16.9375 124.997 16.9375 125.016 16.9375C125.362 16.9193 125.645 16.8464 125.863 16.7188C126.1 16.5729 126.273 16.4089 126.383 16.2266C126.492 16.0443 126.547 15.8529 126.547 15.6523C126.547 15.4701 126.492 15.2878 126.383 15.1055C126.273 14.9232 126.1 14.7682 125.863 14.6406C125.645 14.4948 125.362 14.4128 125.016 14.3945H114.023C113.513 14.3945 113.085 14.2122 112.738 13.8477C112.374 13.5195 112.191 13.1003 112.191 12.5898C112.191 12.0977 112.365 11.6784 112.711 11.332C113.076 10.9857 113.513 10.8125 114.023 10.8125H124.852C126.128 10.8307 127.176 11.1133 127.996 11.6602C128.835 12.1888 129.427 12.8086 129.773 13.5195C130.138 14.2305 130.32 14.9414 130.32 15.6523C130.32 16.3633 130.138 17.0651 129.773 17.7578C129.609 18.0859 129.4 18.3867 129.145 18.6602C129.454 18.9883 129.71 19.3346 129.91 19.6992C130.257 20.4284 130.43 21.1667 130.43 21.9141C130.43 22.625 130.247 23.3451 129.883 24.0742C129.518 24.7852 128.926 25.4232 128.105 25.9883C127.285 26.5352 126.237 26.8268 124.961 26.8633H124.797C124.688 26.8815 124.578 26.8906 124.469 26.8906H114.078C113.568 26.8906 113.13 26.7174 112.766 26.3711C112.419 26.0065 112.246 25.569 112.246 25.0586ZM135.816 14.2578C136.309 14.276 136.728 14.4583 137.074 14.8047C137.421 15.1328 137.603 15.543 137.621 16.0352V25.4961C137.512 26.5898 136.91 27.1823 135.816 27.2734C135.306 27.2734 134.859 27.1094 134.477 26.7812C134.112 26.4349 133.93 26.0065 133.93 25.4961V16.0352C133.948 15.5247 134.139 15.1055 134.504 14.7773C134.868 14.431 135.306 14.2578 135.816 14.2578ZM133.52 10.7031C133.52 10.1927 133.738 9.75521 134.176 9.39062C134.613 9.02604 135.142 8.84375 135.762 8.84375C136.382 8.84375 136.91 9.02604 137.348 9.39062C137.785 9.75521 138.004 10.1927 138.004 10.7031C138.004 11.2318 137.785 11.6784 137.348 12.043C136.91 12.4076 136.382 12.5898 135.762 12.5898C135.142 12.5898 134.613 12.4076 134.176 12.043C133.738 11.6784 133.52 11.2318 133.52 10.7031ZM156.188 12.1523C156.297 11.0586 156.898 10.4661 157.992 10.375C158.503 10.375 158.94 10.5482 159.305 10.8945C159.688 11.2227 159.879 11.6419 159.879 12.1523V25.168C159.861 25.6784 159.669 26.1068 159.305 26.4531C158.94 26.7812 158.503 26.9453 157.992 26.9453H146.508C144.904 26.8906 143.691 26.5169 142.871 25.8242C142.051 25.1133 141.458 24.3203 141.094 23.4453C140.729 22.5521 140.547 21.6497 140.547 20.7383C140.547 19.7904 140.72 18.8789 141.066 18.0039C141.431 17.1107 142.023 16.3177 142.844 15.625C143.682 14.9141 144.74 14.5495 146.016 14.5312H152.906C153.417 14.5312 153.845 14.7135 154.191 15.0781C154.556 15.4245 154.738 15.8529 154.738 16.3633C154.738 16.8737 154.556 17.3112 154.191 17.6758C153.845 18.0221 153.417 18.1953 152.906 18.1953H145.906C145.56 18.1953 145.259 18.3411 145.004 18.6328C144.749 18.9062 144.557 19.2344 144.43 19.6172C144.32 19.9818 144.266 20.3464 144.266 20.7109C144.266 21.0938 144.32 21.4766 144.43 21.8594C144.557 22.224 144.749 22.5521 145.004 22.8438C145.259 23.1172 145.56 23.263 145.906 23.2812H155.477C155.951 23.263 156.188 23.026 156.188 22.5703V12.1523Z" fill="white"/>
<g filter="url(#filter0_dd_10_2)">
<path d="M23.3953 3H10.3272C6.76368 3 3.87485 5.88883 3.87485 9.45238V22.5205C3.87485 26.084 6.76368 28.9729 10.3272 28.9729H23.3953C26.9589 28.9729 29.8477 26.084 29.8477 22.5205V9.45238C29.8477 5.88883 26.9589 3 23.3953 3Z" fill="white"/>
<path d="M23.3953 3H10.3272C6.76368 3 3.87485 5.88883 3.87485 9.45238V22.5205C3.87485 26.084 6.76368 28.9729 10.3272 28.9729H23.3953C26.9589 28.9729 29.8477 26.084 29.8477 22.5205V9.45238C29.8477 5.88883 26.9589 3 23.3953 3Z" fill="url(#paint0_linear_10_2)"/>
<path d="M23.3953 3H10.3272C6.76368 3 3.87485 5.88883 3.87485 9.45238V22.5205C3.87485 26.084 6.76368 28.9729 10.3272 28.9729H23.3953C26.9589 28.9729 29.8477 26.084 29.8477 22.5205V9.45238C29.8477 5.88883 26.9589 3 23.3953 3Z" stroke="#D0D5DD" stroke-width="0.2"/>
<path d="M16.3341 12.0519C19.8918 10.637 23.7826 11.7544 25.5494 13.4653C25.9322 13.836 26.2573 14.212 26.5357 14.5859C26.6945 13.7083 26.7074 12.8342 26.5546 11.9888C25.9964 8.90228 23.0845 7.1537 20.474 8.05694C17.8753 8.95611 16.8617 10.7037 16.8617 10.7037C16.8617 10.7037 15.8481 8.95611 13.2493 8.05694C10.6386 7.1537 7.72668 8.90247 7.16865 11.9888C6.75669 14.2667 7.53681 16.7535 9.19219 18.9511C9.54083 19.0682 9.90633 19.1562 10.2934 19.207C12.6123 19.5118 13.4459 18.8916 14.4255 18.4764C15.076 18.2009 15.5654 18.5136 15.5416 18.7329C15.5048 19.0726 14.2226 19.6533 14.4976 19.7752C15.5831 20.2568 16.9199 20.2608 17.9274 19.4005C19.1792 18.3315 19.6475 19.0623 19.6475 19.0623C19.6475 19.0623 19.0258 20.6482 17.1537 21.4356C15.5918 22.0926 13.9552 22.2545 12.4595 22.0862C13.7494 22.998 15.2306 23.7623 16.8617 24.3078C21.5249 22.7479 24.9697 19.4063 26.1841 15.9126C25.3614 15.1008 24.3522 14.5976 23.1493 14.4152C20.8367 14.0647 19.9912 14.6684 19.0035 15.0641C18.3476 15.327 17.8646 15.0045 17.8928 14.7857C17.9362 14.4467 19.2298 13.8915 18.9571 13.764C17.8814 13.2612 16.5448 13.2307 15.5206 14.0711C14.2479 15.1151 13.794 14.3753 13.794 14.3753C13.794 14.3753 14.4468 12.8023 16.3341 12.0519ZM15.449 16.3991H16.3474V15.5006H17.3755V16.3991H18.2739V17.4271H17.3755V18.3255H16.3474V17.4271H15.449V16.3991Z" fill="url(#paint1_linear_10_2)"/>
<path d="M15.449 16.399H16.3474V15.5006H17.3755V16.399H18.2738V17.4271H17.3822C18.7069 18.0964 21.1397 19.0923 24.0632 19.5353C25.0252 18.3972 25.7486 17.1648 26.184 15.9126C25.3612 15.1008 24.352 14.5976 23.1491 14.4152C20.8366 14.0646 19.991 14.6684 19.0033 15.0641C18.3474 15.327 17.8644 15.0045 17.8926 14.7857C17.936 14.4467 19.2296 13.8915 18.957 13.764C17.8812 13.2611 16.5446 13.2307 15.5204 14.071C14.2476 15.1151 13.7938 14.3753 13.7938 14.3753C13.7938 14.3753 14.4468 12.8021 16.3339 12.0515C19.8916 10.6366 23.7824 11.754 25.5491 13.4649C25.9319 13.8356 26.2571 14.2117 26.5355 14.5854C26.6944 13.7078 26.7073 12.8337 26.5544 11.9884C25.9962 8.90187 23.0843 7.15329 20.4738 8.05653C17.875 8.9557 16.8614 10.7033 16.8614 10.7033C16.8614 10.7033 15.8478 8.9557 13.2491 8.05653C11.7581 7.54056 10.1693 7.89097 8.97644 8.86039C9.53683 10.0602 10.1933 11.1813 12.0631 13.4359C13.5834 15.2695 15.449 16.399 15.449 16.399Z" fill="url(#paint2_linear_10_2)"/>
<path opacity="0.31" d="M23.6215 9.16616C21.1665 7.93277 18.6328 9.85195 17.8291 10.8653C19.2151 10.5734 20.4279 10.4237 21.9625 10.7461C24.2326 11.223 25.0821 12.0427 26.0957 13.2537C25.9167 11.0099 24.4994 9.60725 23.6215 9.16616Z" fill="url(#paint3_linear_10_2)"/>
</g>
<defs>
<filter id="filter0_dd_10_2" x="0.774841" y="0.899994" width="32.1729" height="32.1729" filterUnits="userSpaceOnUse" color-interpolation-filters="sRGB">
<feFlood flood-opacity="0" result="BackgroundImageFix"/>
<feColorMatrix in="SourceAlpha" type="matrix" values="0 0 0 0 0 0 0 0 0 0 0 0 0 0 0 0 0 0 127 0" result="hardAlpha"/>
<feOffset dy="1"/>
<feGaussianBlur stdDeviation="1"/>
<feColorMatrix type="matrix" values="0 0 0 0 0.0627451 0 0 0 0 0.0941176 0 0 0 0 0.156863 0 0 0 0.06 0"/>
<feBlend mode="normal" in2="BackgroundImageFix" result="effect1_dropShadow_10_2"/>
<feColorMatrix in="SourceAlpha" type="matrix" values="0 0 0 0 0 0 0 0 0 0 0 0 0 0 0 0 0 0 127 0" result="hardAlpha"/>
<feOffset dy="1"/>
<feGaussianBlur stdDeviation="1.5"/>
<feColorMatrix type="matrix" values="0 0 0 0 0.0627451 0 0 0 0 0.0941176 0 0 0 0 0.156863 0 0 0 0.1 0"/>
<feBlend mode="normal" in2="effect1_dropShadow_10_2" result="effect2_dropShadow_10_2"/>
<feBlend mode="normal" in="SourceGraphic" in2="effect2_dropShadow_10_2" result="shape"/>
</filter>
<linearGradient id="paint0_linear_10_2" x1="16.8613" y1="2.91832" x2="16.8613" y2="29.0545" gradientUnits="userSpaceOnUse">
<stop stop-color="white"/>
<stop offset="1" stop-color="#D0D5DD"/>
</linearGradient>
<linearGradient id="paint1_linear_10_2" x1="9.6729" y1="21.0615" x2="24.0771" y2="6.65736" gradientUnits="userSpaceOnUse">
<stop stop-color="#0076C1"/>
<stop offset="0.0737" stop-color="#0B82C6"/>
<stop offset="0.2766" stop-color="#269ED3"/>
<stop offset="0.4546" stop-color="#36AFDA"/>
<stop offset="0.587" stop-color="#3CB5DD"/>
</linearGradient>
<linearGradient id="paint2_linear_10_2" x1="9.62381" y1="21.0942" x2="24.0711" y2="6.64687" gradientUnits="userSpaceOnUse">
<stop stop-color="#00A482"/>
<stop offset="1" stop-color="#79DD83"/>
</linearGradient>
<linearGradient id="paint3_linear_10_2" x1="21.6481" y1="12.317" x2="24.6439" y2="9.54485" gradientUnits="userSpaceOnUse">
<stop stop-color="#00A482"/>
<stop offset="1" stop-color="#79DD83"/>
</linearGradient>
</defs>
</svg>
