<svg width="169" height="32" viewBox="0 0 169 32" fill="none" xmlns="http://www.w3.org/2000/svg">
<path d="M48.6447 9.07422C49.2827 9.07422 49.9025 9.18359 50.5041 9.40234C51.1239 9.62109 51.7163 9.9401 52.2814 10.3594C52.3725 10.4505 52.4728 10.5417 52.5822 10.6328C52.6733 10.5417 52.7736 10.4505 52.883 10.3594C53.4481 9.9401 54.0314 9.62109 54.633 9.40234C55.2528 9.18359 55.8725 9.07422 56.4923 9.07422C57.1304 9.07422 57.7502 9.18359 58.3517 9.40234C58.9715 9.62109 59.5548 9.94922 60.1017 10.3867C60.6668 10.806 61.159 11.3711 61.5783 12.082C62.0158 12.793 62.2345 13.6406 62.2345 14.625V24.4961C62.1252 25.5898 61.5236 26.1823 60.4298 26.2734C59.9194 26.2734 59.4728 26.1094 59.09 25.7812C58.7254 25.4349 58.5431 25.0065 58.5431 24.4961V14.8438C58.5431 14.4062 58.4611 14.0417 58.297 13.75C58.133 13.4401 57.9507 13.2031 57.7502 13.0391C57.5496 12.8568 57.34 12.7292 57.1212 12.6562C56.9025 12.5651 56.6837 12.5195 56.465 12.5195C56.2462 12.5195 56.0275 12.5651 55.8087 12.6562C55.6082 12.7292 55.4077 12.8568 55.2072 13.0391C55.0067 13.2031 54.8244 13.4401 54.6603 13.75C54.4962 14.0417 54.4051 14.4062 54.3869 14.8438V24.4961C54.2775 25.5898 53.6759 26.1823 52.5822 26.2734C52.0718 26.2734 51.6252 26.1094 51.2423 25.7812C50.8778 25.4349 50.6955 25.0065 50.6955 24.4961V14.8438C50.6955 14.4062 50.6134 14.0417 50.4494 13.75C50.2853 13.4401 50.103 13.2031 49.9025 13.0391C49.702 12.8568 49.4923 12.7292 49.2736 12.6562C49.0548 12.5651 48.8361 12.5195 48.6173 12.5195C48.3986 12.5195 48.1798 12.5651 47.9611 12.6562C47.7606 12.7292 47.56 12.8568 47.3595 13.0391C47.159 13.2031 46.9767 13.4401 46.8127 13.75C46.6486 14.0417 46.5574 14.4062 46.5392 14.8438V24.4961C46.4481 25.5898 45.8556 26.1823 44.7619 26.2734C44.2515 26.2734 43.8048 26.1094 43.422 25.7812C43.0574 25.4349 42.8752 25.0065 42.8752 24.4961V14.625C42.9116 13.6406 43.1395 12.793 43.5587 12.082C43.978 11.3711 44.4702 10.806 45.0353 10.3867C45.6004 9.94922 46.1837 9.62109 46.7853 9.40234C47.4051 9.18359 48.0249 9.07422 48.6447 9.07422ZM80.965 24.4961V17.9062C80.965 17.4505 80.728 17.2135 80.2541 17.1953H70.6837C70.3374 17.2135 70.0366 17.3685 69.7814 17.6602C69.5262 17.9336 69.3348 18.2617 69.2072 18.6445C69.0978 19.0091 69.0431 19.3828 69.0431 19.7656C69.0431 20.1302 69.0978 20.5039 69.2072 20.8867C69.3348 21.2513 69.5262 21.5794 69.7814 21.8711C70.0366 22.1445 70.3374 22.2812 70.6837 22.2812H77.6837C78.1942 22.2812 78.6225 22.4635 78.9689 22.8281C79.3335 23.1745 79.5158 23.6029 79.5158 24.1133C79.5158 24.6237 79.3335 25.0521 78.9689 25.3984C78.6225 25.763 78.1942 25.9453 77.6837 25.9453H70.7931C69.5171 25.9271 68.4598 25.5716 67.6212 24.8789C66.8009 24.168 66.2085 23.375 65.8439 22.5C65.4975 21.6068 65.3244 20.6862 65.3244 19.7383C65.3244 18.8268 65.5067 17.9336 65.8712 17.0586C66.2358 16.1654 66.8283 15.3724 67.6486 14.6797C68.4689 13.9688 69.6811 13.5859 71.2853 13.5312H82.7697C83.2801 13.5312 83.7176 13.7044 84.0822 14.0508C84.4468 14.3789 84.6382 14.7982 84.6564 15.3086V24.4961C84.6564 25.0065 84.465 25.4349 84.0822 25.7812C83.7176 26.1094 83.2801 26.2734 82.7697 26.2734C81.6759 26.1823 81.0744 25.5898 80.965 24.4961ZM93.9806 26.3008C93.3608 26.3008 92.741 26.1914 92.1212 25.9727C91.5197 25.7539 90.9364 25.4349 90.3712 25.0156C89.8061 24.5781 89.314 24.0039 88.8947 23.293C88.4754 22.582 88.2475 21.7344 88.2111 20.75V14.9258C88.2111 14.4154 88.3934 13.9961 88.758 13.668C89.1408 13.3216 89.5874 13.1484 90.0978 13.1484C91.1916 13.2396 91.784 13.832 91.8752 14.9258V20.5312C91.8934 20.9688 91.9845 21.3424 92.1486 21.6523C92.3127 21.944 92.4949 22.181 92.6955 22.3633C92.896 22.5273 93.0965 22.6549 93.297 22.7461C93.5158 22.819 93.7345 22.8555 93.9533 22.8555C94.172 22.8555 94.3908 22.819 94.6095 22.7461C94.8283 22.6549 95.0379 22.5273 95.2384 22.3633C95.439 22.181 95.6212 21.944 95.7853 21.6523C95.9494 21.3424 96.0314 20.9688 96.0314 20.5312V14.9258C96.0314 14.4154 96.2137 13.9961 96.5783 13.668C96.9611 13.3216 97.4077 13.1484 97.9181 13.1484C99.0119 13.2396 99.6134 13.832 99.7228 14.9258V20.5312C99.741 20.9688 99.8322 21.3333 99.9962 21.625C100.16 21.9349 100.343 22.181 100.543 22.3633C100.744 22.5273 100.944 22.6549 101.145 22.7461C101.363 22.819 101.582 22.8555 101.801 22.8555C102.02 22.8555 102.238 22.819 102.457 22.7461C102.676 22.6549 102.886 22.5273 103.086 22.3633C103.287 22.181 103.469 21.944 103.633 21.6523C103.797 21.3424 103.879 20.9688 103.879 20.5312V14.9258C103.879 14.4154 104.061 13.9961 104.426 13.668C104.809 13.3216 105.255 13.1484 105.766 13.1484C106.86 13.2396 107.461 13.832 107.57 14.9258V20.75C107.57 21.7344 107.352 22.582 106.914 23.293C106.495 24.0039 106.003 24.5781 105.438 25.0156C104.891 25.4349 104.307 25.7539 103.688 25.9727C103.086 26.1914 102.466 26.3008 101.828 26.3008C101.208 26.3008 100.589 26.1914 99.9689 25.9727C99.3673 25.7539 98.784 25.4258 98.2189 24.9883C98.1095 24.9154 98.0093 24.8333 97.9181 24.7422C97.8087 24.8333 97.7085 24.9154 97.6173 24.9883C97.0522 25.4258 96.4598 25.7539 95.84 25.9727C95.2384 26.1914 94.6186 26.3008 93.9806 26.3008ZM111.371 24.0586C111.371 23.5482 111.554 23.1198 111.918 22.7734C112.264 22.4089 112.693 22.2266 113.203 22.2266H124.25C124.597 22.2083 124.879 22.1263 125.098 21.9805C125.335 21.8346 125.508 21.6706 125.617 21.4883C125.727 21.306 125.781 21.1146 125.781 20.9141C125.781 20.7135 125.727 20.5221 125.617 20.3398C125.508 20.1576 125.335 19.9935 125.098 19.8477C124.879 19.7018 124.597 19.6198 124.25 19.6016H113.258C112.748 19.6016 112.319 19.4193 111.973 19.0547C111.608 18.7083 111.426 18.2799 111.426 17.7695C111.426 17.2591 111.599 16.8307 111.945 16.4844C112.31 16.1198 112.748 15.9375 113.258 15.9375H124.086C124.104 15.9375 124.123 15.9375 124.141 15.9375C124.487 15.9193 124.77 15.8464 124.988 15.7188C125.225 15.5729 125.399 15.4089 125.508 15.2266C125.617 15.0443 125.672 14.8529 125.672 14.6523C125.672 14.4701 125.617 14.2878 125.508 14.1055C125.399 13.9232 125.225 13.7682 124.988 13.6406C124.77 13.4948 124.487 13.4128 124.141 13.3945H113.149C112.638 13.3945 112.21 13.2122 111.863 12.8477C111.499 12.5195 111.317 12.1003 111.317 11.5898C111.317 11.0977 111.49 10.6784 111.836 10.332C112.201 9.98568 112.638 9.8125 113.149 9.8125H123.977C125.253 9.83073 126.301 10.1133 127.121 10.6602C127.96 11.1888 128.552 11.8086 128.899 12.5195C129.263 13.2305 129.445 13.9414 129.445 14.6523C129.445 15.3633 129.263 16.0651 128.899 16.7578C128.735 17.0859 128.525 17.3867 128.27 17.6602C128.58 17.9883 128.835 18.3346 129.035 18.6992C129.382 19.4284 129.555 20.1667 129.555 20.9141C129.555 21.625 129.373 22.3451 129.008 23.0742C128.643 23.7852 128.051 24.4232 127.231 24.9883C126.41 25.5352 125.362 25.8268 124.086 25.8633H123.922C123.813 25.8815 123.703 25.8906 123.594 25.8906H113.203C112.693 25.8906 112.255 25.7174 111.891 25.3711C111.544 25.0065 111.371 24.569 111.371 24.0586ZM134.942 13.2578C135.434 13.276 135.853 13.4583 136.199 13.8047C136.546 14.1328 136.728 14.543 136.746 15.0352V24.4961C136.637 25.5898 136.035 26.1823 134.942 26.2734C134.431 26.2734 133.985 26.1094 133.602 25.7812C133.237 25.4349 133.055 25.0065 133.055 24.4961V15.0352C133.073 14.5247 133.264 14.1055 133.629 13.7773C133.994 13.431 134.431 13.2578 134.942 13.2578ZM132.645 9.70312C132.645 9.19271 132.863 8.75521 133.301 8.39062C133.738 8.02604 134.267 7.84375 134.887 7.84375C135.507 7.84375 136.035 8.02604 136.473 8.39062C136.91 8.75521 137.129 9.19271 137.129 9.70312C137.129 10.2318 136.91 10.6784 136.473 11.043C136.035 11.4076 135.507 11.5898 134.887 11.5898C134.267 11.5898 133.738 11.4076 133.301 11.043C132.863 10.6784 132.645 10.2318 132.645 9.70312ZM155.313 11.1523C155.422 10.0586 156.024 9.46615 157.117 9.375C157.628 9.375 158.065 9.54818 158.43 9.89453C158.813 10.2227 159.004 10.6419 159.004 11.1523V24.168C158.986 24.6784 158.794 25.1068 158.43 25.4531C158.065 25.7812 157.628 25.9453 157.117 25.9453H145.633C144.029 25.8906 142.817 25.5169 141.996 24.8242C141.176 24.1133 140.583 23.3203 140.219 22.4453C139.854 21.5521 139.672 20.6497 139.672 19.7383C139.672 18.7904 139.845 17.8789 140.192 17.0039C140.556 16.1107 141.149 15.3177 141.969 14.625C142.807 13.9141 143.865 13.5495 145.141 13.5312H152.031C152.542 13.5312 152.97 13.7135 153.317 14.0781C153.681 14.4245 153.863 14.8529 153.863 15.3633C153.863 15.8737 153.681 16.3112 153.317 16.6758C152.97 17.0221 152.542 17.1953 152.031 17.1953H145.031C144.685 17.1953 144.384 17.3411 144.129 17.6328C143.874 17.9062 143.682 18.2344 143.555 18.6172C143.445 18.9818 143.391 19.3464 143.391 19.7109C143.391 20.0938 143.445 20.4766 143.555 20.8594C143.682 21.224 143.874 21.5521 144.129 21.8438C144.384 22.1172 144.685 22.263 145.031 22.2812H154.602C155.076 22.263 155.313 22.026 155.313 21.5703V11.1523Z" fill="white"/>
<g filter="url(#filter0_dd_17_97)">
<path d="M22.5205 2H9.45238C5.88883 2 3 4.88883 3 8.45238V21.5205C3 25.084 5.88883 27.9729 9.45238 27.9729H22.5205C26.084 27.9729 28.9729 25.084 28.9729 21.5205V8.45238C28.9729 4.88883 26.084 2 22.5205 2Z" fill="white"/>
<path d="M22.5205 2H9.45238C5.88883 2 3 4.88883 3 8.45238V21.5205C3 25.084 5.88883 27.9729 9.45238 27.9729H22.5205C26.084 27.9729 28.9729 25.084 28.9729 21.5205V8.45238C28.9729 4.88883 26.084 2 22.5205 2Z" fill="url(#paint0_linear_17_97)"/>
</g>
<g clip-path="url(#clip0_17_97)">
<mask id="mask0_17_97" style="mask-type:luminance" maskUnits="userSpaceOnUse" x="13" y="6" width="6" height="7">
<path d="M13.96 6.96713H18.04V12.768H13.96V6.96713Z" fill="white"/>
</mask>
<g mask="url(#mask0_17_97)">
<path d="M13.9902 12.7326V6.97501H18.0074C18.0074 6.97501 18.0614 9.66994 17.034 10.7556C16.0069 11.8412 13.9902 12.7326 13.9902 12.7326Z" fill="#00A482"/>
</g>
<mask id="mask1_17_97" style="mask-type:luminance" maskUnits="userSpaceOnUse" x="7" y="7" width="12" height="11">
<path d="M7.30301 7.15201H18.04V17.712H7.30301V7.15201Z" fill="white"/>
</mask>
<g mask="url(#mask1_17_97)">
<mask id="mask2_17_97" style="mask-type:luminance" maskUnits="userSpaceOnUse" x="7" y="7" width="12" height="11">
<path d="M18.0066 7.19232C18.0115 7.90445 17.9283 10.2563 16.7723 12.5528C16.4078 13.2752 15.9379 13.9926 15.3299 14.6518C13.7553 16.3596 11.2574 17.6743 7.30301 17.6743V13.662C10.2196 13.662 12.343 13.215 13.8891 12.5528C14.4398 12.3165 14.9178 12.0534 15.3312 11.7729C17.764 10.1235 17.9969 7.88832 18.0066 7.19232Z" fill="white"/>
</mask>
<g mask="url(#mask2_17_97)">
<path d="M7.30301 7.19232V17.6743H18.0115V7.19232H7.30301Z" fill="url(#paint1_linear_17_97)"/>
</g>
</g>
<mask id="mask3_17_97" style="mask-type:luminance" maskUnits="userSpaceOnUse" x="13" y="17" width="6" height="7">
<path d="M13.96 17.232H18.04V23.0231H13.96V17.232Z" fill="white"/>
</mask>
<g mask="url(#mask3_17_97)">
<path d="M18.0079 17.2661V23.0237H13.9906C13.9906 23.0237 13.9368 20.3287 14.9641 19.2431C15.9912 18.1581 18.0079 17.2661 18.0079 17.2661Z" fill="#00A482"/>
</g>
<mask id="mask4_17_97" style="mask-type:luminance" maskUnits="userSpaceOnUse" x="13" y="12" width="12" height="11">
<path d="M13.96 12.288H24.691V22.848H13.96V12.288Z" fill="white"/>
</mask>
<g mask="url(#mask4_17_97)">
<mask id="mask5_17_97" style="mask-type:luminance" maskUnits="userSpaceOnUse" x="13" y="12" width="12" height="11">
<path d="M13.9911 22.8066C13.9862 22.0944 14.0695 19.7426 15.2252 17.4459C15.5897 16.7237 16.0598 16.0061 16.6679 15.3471C18.2425 13.6393 20.7402 12.3246 24.6951 12.3246V16.3369C21.7786 16.3369 19.6551 16.7837 18.109 17.4459C17.5583 17.6824 17.0804 17.9454 16.6669 18.2257C14.2341 19.8752 14.0012 22.1107 13.9911 22.8066Z" fill="white"/>
</mask>
<g mask="url(#mask5_17_97)">
<path d="M24.691 22.8066V12.3246H13.9862V22.8066H24.691Z" fill="url(#paint2_linear_17_97)"/>
</g>
</g>
</g>
<defs>
<filter id="filter0_dd_17_97" x="0" y="0" width="31.9729" height="31.9729" filterUnits="userSpaceOnUse" color-interpolation-filters="sRGB">
<feFlood flood-opacity="0" result="BackgroundImageFix"/>
<feColorMatrix in="SourceAlpha" type="matrix" values="0 0 0 0 0 0 0 0 0 0 0 0 0 0 0 0 0 0 127 0" result="hardAlpha"/>
<feOffset dy="1"/>
<feGaussianBlur stdDeviation="1"/>
<feColorMatrix type="matrix" values="0 0 0 0 0.0627451 0 0 0 0 0.0941176 0 0 0 0 0.156863 0 0 0 0.06 0"/>
<feBlend mode="normal" in2="BackgroundImageFix" result="effect1_dropShadow_17_97"/>
<feColorMatrix in="SourceAlpha" type="matrix" values="0 0 0 0 0 0 0 0 0 0 0 0 0 0 0 0 0 0 127 0" result="hardAlpha"/>
<feOffset dy="1"/>
<feGaussianBlur stdDeviation="1.5"/>
<feColorMatrix type="matrix" values="0 0 0 0 0.0627451 0 0 0 0 0.0941176 0 0 0 0 0.156863 0 0 0 0.1 0"/>
<feBlend mode="normal" in2="effect1_dropShadow_17_97" result="effect2_dropShadow_17_97"/>
<feBlend mode="normal" in="SourceGraphic" in2="effect2_dropShadow_17_97" result="shape"/>
</filter>
<linearGradient id="paint0_linear_17_97" x1="15.9864" y1="1.91832" x2="15.9864" y2="28.0545" gradientUnits="userSpaceOnUse">
<stop stop-color="white"/>
<stop offset="1" stop-color="#D0D5DD"/>
</linearGradient>
<linearGradient id="paint1_linear_17_97" x1="7.30292" y1="12.4334" x2="18.0115" y2="12.4334" gradientUnits="userSpaceOnUse">
<stop stop-color="#3DC183"/>
<stop offset="0.03125" stop-color="#3DC183"/>
<stop offset="0.046875" stop-color="#3DC183"/>
<stop offset="0.0625" stop-color="#3EC283"/>
<stop offset="0.078125" stop-color="#3FC283"/>
<stop offset="0.09375" stop-color="#40C283"/>
<stop offset="0.109375" stop-color="#41C383"/>
<stop offset="0.125" stop-color="#42C383"/>
<stop offset="0.140625" stop-color="#43C483"/>
<stop offset="0.15625" stop-color="#44C483"/>
<stop offset="0.171875" stop-color="#45C583"/>
<stop offset="0.1875" stop-color="#46C583"/>
<stop offset="0.203125" stop-color="#47C683"/>
<stop offset="0.21875" stop-color="#48C683"/>
<stop offset="0.234375" stop-color="#49C783"/>
<stop offset="0.25" stop-color="#4AC783"/>
<stop offset="0.265625" stop-color="#4BC783"/>
<stop offset="0.28125" stop-color="#4CC883"/>
<stop offset="0.296875" stop-color="#4DC883"/>
<stop offset="0.3125" stop-color="#4EC983"/>
<stop offset="0.328125" stop-color="#4FC983"/>
<stop offset="0.34375" stop-color="#50CA83"/>
<stop offset="0.359375" stop-color="#51CA83"/>
<stop offset="0.375" stop-color="#52CB83"/>
<stop offset="0.390625" stop-color="#53CB83"/>
<stop offset="0.40625" stop-color="#54CC83"/>
<stop offset="0.421875" stop-color="#55CC83"/>
<stop offset="0.4375" stop-color="#56CD83"/>
<stop offset="0.453125" stop-color="#57CD83"/>
<stop offset="0.46875" stop-color="#58CD83"/>
<stop offset="0.484375" stop-color="#59CE83"/>
<stop offset="0.5" stop-color="#5ACE83"/>
<stop offset="0.515625" stop-color="#5BCF83"/>
<stop offset="0.53125" stop-color="#5CCF83"/>
<stop offset="0.546875" stop-color="#5DD083"/>
<stop offset="0.5625" stop-color="#5ED083"/>
<stop offset="0.578125" stop-color="#5FD183"/>
<stop offset="0.59375" stop-color="#60D183"/>
<stop offset="0.609375" stop-color="#61D283"/>
<stop offset="0.625" stop-color="#61D283"/>
<stop offset="0.640625" stop-color="#62D383"/>
<stop offset="0.65625" stop-color="#63D383"/>
<stop offset="0.671875" stop-color="#64D383"/>
<stop offset="0.6875" stop-color="#65D483"/>
<stop offset="0.703125" stop-color="#66D483"/>
<stop offset="0.71875" stop-color="#67D583"/>
<stop offset="0.734375" stop-color="#68D583"/>
<stop offset="0.75" stop-color="#69D683"/>
<stop offset="0.765625" stop-color="#6AD683"/>
<stop offset="0.78125" stop-color="#6BD783"/>
<stop offset="0.796875" stop-color="#6CD783"/>
<stop offset="0.8125" stop-color="#6DD883"/>
<stop offset="0.828125" stop-color="#6ED883"/>
<stop offset="0.84375" stop-color="#6FD983"/>
<stop offset="0.859375" stop-color="#70D983"/>
<stop offset="0.875" stop-color="#71D983"/>
<stop offset="0.890625" stop-color="#72DA83"/>
<stop offset="0.90625" stop-color="#73DA83"/>
<stop offset="0.921875" stop-color="#74DB83"/>
<stop offset="0.9375" stop-color="#75DB83"/>
<stop offset="0.953125" stop-color="#76DC83"/>
<stop offset="0.96875" stop-color="#77DC83"/>
<stop offset="0.984375" stop-color="#78DD83"/>
<stop offset="1" stop-color="#79DD83"/>
</linearGradient>
<linearGradient id="paint2_linear_17_97" x1="24.6909" y1="17.5656" x2="13.9862" y2="17.5656" gradientUnits="userSpaceOnUse">
<stop stop-color="#3DC183"/>
<stop offset="0.03125" stop-color="#3DC183"/>
<stop offset="0.046875" stop-color="#3DC183"/>
<stop offset="0.0625" stop-color="#3EC283"/>
<stop offset="0.078125" stop-color="#3FC283"/>
<stop offset="0.09375" stop-color="#40C283"/>
<stop offset="0.109375" stop-color="#41C383"/>
<stop offset="0.125" stop-color="#42C383"/>
<stop offset="0.140625" stop-color="#43C483"/>
<stop offset="0.15625" stop-color="#44C483"/>
<stop offset="0.171875" stop-color="#45C583"/>
<stop offset="0.1875" stop-color="#46C583"/>
<stop offset="0.203125" stop-color="#47C683"/>
<stop offset="0.21875" stop-color="#48C683"/>
<stop offset="0.234375" stop-color="#49C783"/>
<stop offset="0.25" stop-color="#4AC783"/>
<stop offset="0.265625" stop-color="#4BC883"/>
<stop offset="0.28125" stop-color="#4CC883"/>
<stop offset="0.296875" stop-color="#4DC883"/>
<stop offset="0.3125" stop-color="#4EC983"/>
<stop offset="0.328125" stop-color="#4FC983"/>
<stop offset="0.34375" stop-color="#50CA83"/>
<stop offset="0.359375" stop-color="#51CA83"/>
<stop offset="0.375" stop-color="#52CB83"/>
<stop offset="0.390625" stop-color="#53CB83"/>
<stop offset="0.40625" stop-color="#54CC83"/>
<stop offset="0.421875" stop-color="#55CC83"/>
<stop offset="0.4375" stop-color="#56CD83"/>
<stop offset="0.453125" stop-color="#57CD83"/>
<stop offset="0.46875" stop-color="#58CD83"/>
<stop offset="0.484375" stop-color="#59CE83"/>
<stop offset="0.5" stop-color="#5ACE83"/>
<stop offset="0.515625" stop-color="#5BCF83"/>
<stop offset="0.53125" stop-color="#5CCF83"/>
<stop offset="0.546875" stop-color="#5DD083"/>
<stop offset="0.5625" stop-color="#5ED083"/>
<stop offset="0.578125" stop-color="#5FD183"/>
<stop offset="0.59375" stop-color="#60D183"/>
<stop offset="0.609375" stop-color="#61D283"/>
<stop offset="0.625" stop-color="#62D283"/>
<stop offset="0.640625" stop-color="#62D383"/>
<stop offset="0.65625" stop-color="#63D383"/>
<stop offset="0.671875" stop-color="#64D383"/>
<stop offset="0.6875" stop-color="#65D483"/>
<stop offset="0.703125" stop-color="#66D483"/>
<stop offset="0.71875" stop-color="#67D583"/>
<stop offset="0.734375" stop-color="#68D583"/>
<stop offset="0.75" stop-color="#69D683"/>
<stop offset="0.765625" stop-color="#6AD683"/>
<stop offset="0.78125" stop-color="#6BD783"/>
<stop offset="0.796875" stop-color="#6CD783"/>
<stop offset="0.8125" stop-color="#6DD883"/>
<stop offset="0.828125" stop-color="#6ED883"/>
<stop offset="0.84375" stop-color="#6FD983"/>
<stop offset="0.859375" stop-color="#70D983"/>
<stop offset="0.875" stop-color="#71D983"/>
<stop offset="0.890625" stop-color="#72DA83"/>
<stop offset="0.90625" stop-color="#73DA83"/>
<stop offset="0.921875" stop-color="#74DB83"/>
<stop offset="0.9375" stop-color="#75DB83"/>
<stop offset="0.953125" stop-color="#76DC83"/>
<stop offset="0.96875" stop-color="#77DC83"/>
<stop offset="0.984375" stop-color="#78DD83"/>
<stop offset="1" stop-color="#79DD83"/>
</linearGradient>
<clipPath id="clip0_17_97">
<rect width="18" height="18" fill="white" transform="translate(7 6)"/>
</clipPath>
</defs>
</svg>
